<svg xmlns="http://www.w3.org/2000/svg" width="72" height="71" viewBox="0 0 72 71" fill="none">
    <path fill-rule="evenodd" clip-rule="evenodd"
        d="M0.873404 13.1396C1.44387 14.0908 2.67093 14.403 3.61412 13.837C16.72 5.9719 28.1084 3.92815 37.4027 5.46054C46.6927 6.99225 54.1134 12.1317 59.252 19.0565C68.9246 32.0915 70.2994 51.06 61.0922 63.6181C61.1014 62.6448 61.1344 61.7587 61.1672 61.1692C61.2288 60.0614 60.3892 59.1067 59.2918 59.0369C58.1943 58.967 57.2547 59.8084 57.193 60.9162C57.145 61.779 57.0982 63.1805 57.1116 64.6226C57.1246 66.0264 57.1947 67.6157 57.4201 68.7792C57.5259 69.325 57.8407 69.7773 58.2639 70.0672C58.7336 70.4468 59.3657 70.6098 59.9917 70.4537C61.7164 70.0237 65.4464 69.246 67.3659 69.2669C68.4651 69.2788 69.3596 68.3887 69.3639 67.2788C69.3681 66.1688 68.4806 65.2594 67.3814 65.2475C66.6143 65.2391 65.6863 65.3196 64.72 65.4472C74.7045 51.2546 72.816 30.6502 62.4467 16.6764C56.7574 9.00935 48.4539 3.2253 38.0219 1.50532C27.594 -0.213976 15.2623 2.16236 1.54827 10.3924C0.605085 10.9585 0.302936 12.1884 0.873404 13.1396Z"
        fill="#52CA01" />
</svg>