<svg width="129" height="96" viewBox="0 0 129 96" fill="none" xmlns="http://www.w3.org/2000/svg">
    <path fill-rule="evenodd" clip-rule="evenodd"
        d="M62.7223 43.1687C59.7026 46.9835 57.1261 51.0702 55.1077 55.341C53.5447 58.6482 52.3442 63.2328 52.2844 67.6766C52.2242 72.1526 53.3172 76.1316 55.9182 78.6637C57.6044 80.3052 59.4247 80.9204 61.2567 80.8735C63.1451 80.8252 65.192 80.0646 67.1911 78.6863C74.6545 73.5408 75.6168 64.0177 72.6721 55.13C71.0461 50.2225 67.3229 45.9842 62.7223 43.1687ZM59.0908 41.3207C56.0948 45.1927 53.5276 49.323 51.4912 53.6318C49.6976 57.4269 48.3527 62.5738 48.2848 67.6228C48.2173 72.6397 49.4144 77.9147 53.128 81.5299C55.5751 83.912 58.4339 84.9471 61.359 84.8722C64.2277 84.7988 67.0157 83.6657 69.4615 81.9795C79.0534 75.3666 79.6694 63.5313 76.4691 53.872C74.5876 48.1932 70.4505 43.3556 65.3196 40.0762C77.5752 26.3047 95.6639 16.7305 113.459 16.0435C114.563 16.0009 115.423 15.0716 115.38 13.9679C115.338 12.8641 114.408 12.0039 113.305 12.0465C94.0621 12.7894 74.6764 23.1915 61.7245 38.1096C58.09 36.4335 54.1468 35.5044 50.2563 35.5278C33.2221 35.6301 18.7051 47.2382 8.6908 59.1564C7.98023 60.0021 8.08974 61.2637 8.93541 61.9742C9.78108 62.6848 11.0427 62.5753 11.7532 61.7296C21.5329 50.0906 35.039 39.6192 50.2804 39.5277C53.2517 39.5098 56.2636 40.1539 59.0908 41.3207Z"
        fill="#52CA01" />
    <path fill-rule="evenodd" clip-rule="evenodd"
        d="M94.7606 5.7296C95.1102 4.68179 96.2429 4.11573 97.2907 4.46527C99.3669 5.15785 102.733 6.36188 106.121 7.73538C109.473 9.09421 112.983 10.6733 115.263 12.1249C116.195 12.7181 116.469 13.9544 115.876 14.8861C115.283 15.8179 114.047 16.0923 113.115 15.499C111.168 14.2597 107.955 12.795 104.618 11.4423C101.318 10.1043 98.0315 8.92907 96.025 8.25971C94.9772 7.91018 94.4111 6.77741 94.7606 5.7296Z"
        fill="#52CA01" />
    <path fill-rule="evenodd" clip-rule="evenodd"
        d="M115.64 12.4353C114.88 11.6338 113.615 11.6002 112.813 12.3602C111.225 13.8662 108.684 16.3814 106.196 19.0594C103.734 21.7087 101.221 24.6248 99.7696 26.9048C99.1763 27.8365 99.4508 29.0728 100.383 29.666C101.314 30.2592 102.55 29.9848 103.144 29.053C104.383 27.1065 106.675 24.4196 109.126 21.7823C111.55 19.1735 114.031 16.7182 115.565 15.2627C116.367 14.5027 116.4 13.2368 115.64 12.4353Z"
        fill="#52CA01" />
</svg>