<svg width="110" height="28" viewBox="0 0 110 28" fill="none" xmlns="http://www.w3.org/2000/svg">
    <path fill-rule="evenodd" clip-rule="evenodd"
        d="M98.0122 21.4913C97.1203 20.6346 96.5903 19.6567 96.4051 18.5455L109.834 18.5812L109.911 16.7916C109.98 14.195 109.171 12.1582 107.548 10.4859C105.926 8.8039 103.897 7.96191 101.498 7.96191C99.1605 7.96191 97.1246 8.87284 95.4134 10.6553C93.7071 12.433 92.8535 14.6015 92.8535 17.1286C92.8535 19.6579 93.72 21.8322 95.4485 23.6201L95.4496 23.6214C97.1761 25.3955 99.2572 26.2952 101.666 26.2952C102.552 26.2952 103.415 26.1635 104.254 25.8997L104.257 25.899L104.259 25.8983C105.079 25.6327 105.765 25.343 106.305 25.0239L106.308 25.022C106.842 24.7017 107.336 24.3389 107.789 23.9336L107.789 23.9331C108.22 23.5462 108.536 23.2416 108.694 23.0414C108.829 22.8724 108.934 22.7385 109.007 22.6421L109.287 22.2679L106.998 19.9795L106.022 21.0956L106.015 21.1042C105.713 21.4797 105.16 21.8987 104.299 22.3454C103.491 22.7648 102.616 22.9757 101.666 22.9757C100.27 22.9757 99.0607 22.4874 98.0122 21.4913ZM98.0774 12.6838C97.246 13.472 96.7089 14.3725 96.4539 15.393H106.388C106.149 14.2889 105.63 13.3693 104.834 12.6169L104.832 12.6149C103.913 11.736 102.812 11.2983 101.498 11.2983C100.191 11.2983 99.0585 11.7538 98.0774 12.6838Z"
        fill="#1B1F18" />
    <path fill-rule="evenodd" clip-rule="evenodd"
        d="M83.7256 11.1442C83.545 11.2396 83.3767 11.3528 83.2214 11.4837C82.6485 11.9667 82.3622 12.5284 82.3622 13.1687C82.3622 13.8315 82.6712 14.3651 83.2888 14.7695C83.3856 14.8327 83.4851 14.894 83.5881 14.9533C83.4851 14.894 83.3856 14.8327 83.2891 14.7695C82.6712 14.3651 82.3622 13.8315 82.3622 13.1687C82.3622 12.5284 82.6488 11.9667 83.2217 11.4837C83.3767 11.3528 83.545 11.2396 83.7256 11.1442ZM83.5843 14.3183C84.1462 14.6862 84.8396 14.9915 85.6733 15.227C86.5622 15.4663 87.4502 15.7454 88.3378 16.0639C89.3022 16.3982 90.1266 16.9567 90.8044 17.7325C91.5235 18.5439 91.8659 19.5712 91.8659 20.7683C91.8659 22.3531 91.252 23.6907 90.0476 24.7461L90.0452 24.7482C88.8328 25.7981 87.2292 26.2952 85.2942 26.2952C84.4611 26.2952 83.669 26.1881 82.9195 25.9706L82.9173 25.9699C82.2004 25.7583 81.5847 25.4994 81.0824 25.1854C80.6162 24.8941 80.2024 24.5992 79.8433 24.2999L79.8357 24.2936L79.8284 24.2871C79.493 23.9863 79.2242 23.7145 79.0382 23.4753L79.0282 23.4623L78.5459 22.7574L81.0662 20.2616L81.4291 20.8062C81.4693 20.8663 81.5256 20.9483 81.5989 21.0533C81.6618 21.1321 81.8119 21.298 82.0694 21.5664C82.3277 21.8136 82.6008 22.0402 82.889 22.2465C83.1516 22.4237 83.5072 22.5945 83.9685 22.7518C84.4085 22.9018 84.8499 22.9757 85.2942 22.9757C86.3918 22.9757 87.1421 22.7321 87.6274 22.3262L87.6293 22.3247L87.6311 22.3231C88.1385 21.9064 88.378 21.4007 88.378 20.7683C88.378 20.2835 88.1709 19.8857 87.6708 19.5463L87.6659 19.5432L87.6616 19.54C87.103 19.1438 86.4144 18.8249 85.5859 18.5912L85.5819 18.59L85.5781 18.5889C84.7054 18.3282 83.8275 18.045 82.944 17.7392L82.9413 17.7382L82.9384 17.7372C81.9842 17.3947 81.1597 16.86 80.4714 16.1349L80.4682 16.1315L80.465 16.128C79.7419 15.3393 79.3965 14.3372 79.3965 13.1687C79.3965 11.7483 80.0002 10.5181 81.1438 9.49741L81.146 9.49552C82.3129 8.46519 83.7647 7.96191 85.4627 7.96191C86.1456 7.96191 86.8129 8.04563 87.4629 8.21362C88.1075 8.36641 88.6621 8.56581 89.1118 8.82194C89.5211 9.04439 89.8902 9.28162 90.2167 9.53464C90.5319 9.76023 90.7834 9.9589 90.9498 10.1251L91.5855 10.761L88.9999 13.3215L88.6368 12.7769C88.5745 12.6834 88.4669 12.5544 88.2998 12.3873L88.2879 12.3754L88.2769 12.3628C88.2437 12.3252 88.1534 12.2468 87.9671 12.1287C87.7883 12.0155 87.5489 11.8827 87.2437 11.7301L87.2402 11.7283L87.2367 11.7266C86.6856 11.4411 86.0968 11.2983 85.4627 11.2983C84.6385 11.2983 84.0241 11.5124 83.5692 11.8959C83.0947 12.2959 82.9014 12.7151 82.9014 13.1687C82.9014 13.6264 83.0982 14.0002 83.5843 14.3183Z"
        fill="#1B1F18" />
    <path fill-rule="evenodd" clip-rule="evenodd"
        d="M75.0904 1.23877C75.665 1.23877 76.1699 1.44291 76.5671 1.85155C76.9758 2.24874 77.1799 2.75362 77.1799 3.32823C77.1799 3.90592 76.9739 4.4148 76.5671 4.82164C76.1672 5.22144 75.662 5.41769 75.0904 5.41769C74.5191 5.41769 74.0125 5.22185 73.6044 4.82876L73.5971 4.82172L73.5901 4.81439C73.197 4.40618 73.001 3.89958 73.001 3.32823C73.001 2.75674 73.1973 2.25147 73.5971 1.85167C74.0039 1.44484 74.5129 1.23877 75.0904 1.23877ZM73.355 8.31598V25.9584H76.8429V8.31598H73.355Z"
        fill="#1B1F18" />
    <path fill-rule="evenodd" clip-rule="evenodd"
        d="M72.1905 25.9583L64.7598 15.6261L71.7036 8.31588H67.2828L59.7643 16.2928V0.716309H56.2764V25.9583H59.7643V20.9839L62.4544 18.1558L68.0995 25.9583H72.1905Z"
        fill="#1B1F18" />
    <path fill-rule="evenodd" clip-rule="evenodd"
        d="M46.9826 7.96191C48.3546 7.96191 49.6393 8.26067 50.8288 8.86081C51.973 9.42181 52.8479 10.0081 53.3998 10.6349L54.4707 11.8054L51.9016 14.3494L51.5387 13.8048C51.4999 13.7467 51.4376 13.6583 51.3489 13.5364C51.2847 13.4482 51.1092 13.2499 50.7905 12.9198L50.7873 12.9163L50.7838 12.9127C50.5091 12.6174 50.2106 12.3649 49.8884 12.1535L49.8836 12.1504L49.8787 12.1471C49.5735 11.9371 49.1573 11.7377 48.6151 11.5571C48.0996 11.3852 47.5563 11.2983 46.9826 11.2983C45.5588 11.2983 44.321 11.8462 43.2464 12.983C42.1906 14.1002 41.6578 15.4756 41.6578 17.1454C41.6578 18.8021 42.1895 20.1783 43.2461 21.3078C44.3202 22.4325 45.5577 22.9757 46.9826 22.9757C47.8591 22.9757 48.6879 22.7678 49.4759 22.3481C50.3112 21.9033 50.8728 21.4818 51.2038 21.0954L52.1154 19.9904L54.6184 22.248L54.3227 22.6421C54.2437 22.7475 54.1269 22.8881 53.9795 23.0585C53.815 23.2498 53.4942 23.5489 53.0501 23.9376L53.0472 23.9401L53.0442 23.9426C52.5743 24.3422 52.0798 24.7012 51.5616 25.0192L51.5578 25.0216L51.5538 25.0239C51.0151 25.3423 50.3354 25.6319 49.5269 25.8976L49.5247 25.8983L49.5223 25.8991C48.6946 26.163 47.8475 26.2952 46.9826 26.2952C44.5736 26.2952 42.4925 25.3955 40.766 23.6214L40.7646 23.6201C39.0364 21.8322 38.1699 19.6579 38.1699 17.1286C38.1699 14.5992 39.0364 12.4298 40.766 10.6526C42.5022 8.86871 44.5831 7.96191 46.9826 7.96191Z"
        fill="#1B1F18" />
    <path fill-rule="evenodd" clip-rule="evenodd"
        d="M34.2008 1.23877C34.7753 1.23877 35.28 1.44291 35.6772 1.85156C36.0859 2.24874 36.2902 2.75362 36.2902 3.32823C36.2902 3.90592 36.084 4.4148 35.6772 4.82164C35.2773 5.22144 34.7721 5.41769 34.2008 5.41769C33.6292 5.41769 33.1226 5.22185 32.7144 4.82876L32.7072 4.82172L32.7002 4.81439C32.3071 4.40618 32.1113 3.89958 32.1113 3.32823C32.1113 2.75674 32.3073 2.25147 32.7072 1.85167C33.114 1.44484 33.623 1.23877 34.2008 1.23877ZM32.4651 8.31598V25.9584H35.9532V8.31598H32.4651Z"
        fill="#1B1F18" />
    <path fill-rule="evenodd" clip-rule="evenodd" d="M28.8661 25.9583V0.716309H25.3779V25.9583H28.8661Z"
        fill="#1B1F18" />
    <path fill-rule="evenodd" clip-rule="evenodd"
        d="M13.0552 22.8071C10.4712 22.7869 8.30854 21.8815 6.53414 20.0861C4.74063 18.2714 3.8421 16.034 3.8421 13.3374C3.8421 10.6409 4.74063 8.40344 6.53414 6.58871C8.32873 4.77287 10.5205 3.86745 13.1436 3.86745C14.1235 3.86745 15.0562 4.01109 15.9443 4.29655C16.8612 4.59126 17.5715 4.91069 18.0911 5.24692L18.0963 5.25024L18.1015 5.25345C18.6535 5.59315 19.1626 5.98565 19.6294 6.4312C20.1294 6.90851 20.4051 7.20506 20.5048 7.3463L20.5093 7.35264L20.514 7.35887C20.6443 7.53263 20.7328 7.66172 20.7863 7.75088L21.1217 8.30986L23.7107 5.99735L23.033 5.08394C22.7504 4.68708 22.3118 4.23584 21.7417 3.73399C21.1679 3.21901 20.5003 2.71473 19.7416 2.2203C18.9562 1.701 17.9787 1.27222 16.8226 0.925208C15.6462 0.560774 14.4191 0.379395 13.1436 0.379395C9.55339 0.379395 6.4838 1.64273 3.96634 4.16019C1.44888 6.67765 0.185547 9.74724 0.185547 13.3374C0.185547 16.9276 1.44888 19.9972 3.96634 22.5147C6.4838 25.0321 9.55339 26.2954 13.1436 26.2954C14.42 26.2954 15.658 26.1138 16.8558 25.7498L16.859 25.7488C17.2265 25.6346 17.5744 25.5153 17.9022 25.3905L16.5921 24.0469C16.5892 24.0439 16.5857 24.0417 16.5818 24.0404L13.0552 22.8071Z"
        fill="#1B1F18" />
    <path
        d="M21.8412 14.3933C22.4479 14.1162 23.1379 14.5592 23.1386 15.2262L23.1495 25.8782C23.1504 26.7126 22.1265 27.1141 21.5599 26.5015L17.891 22.5347C17.7863 22.4215 17.6548 22.3366 17.5086 22.2877L12.235 20.5248C11.446 20.261 11.388 19.1672 12.1448 18.8216L21.8412 14.3933Z"
        fill="#52CA01" />
</svg>