<svg width="418" height="325" viewBox="0 0 418 325" fill="none" xmlns="http://www.w3.org/2000/svg">
    <path fill-rule="evenodd" clip-rule="evenodd"
        d="M37.0008 1.09321C31.8357 -0.108736 26.4405 0.0865211 21.377 1.65865C16.3135 3.23077 11.7666 6.12231 8.20975 10.0323C4.65287 13.9422 2.21594 18.7277 1.15267 23.8906C0.0893924 29.0535 0.438618 34.405 2.16399 39.3882L91.9825 298.495C100.67 323.484 131.594 333.438 153.144 316.623C171.17 302.556 197.842 281.07 221.427 259.367C233.218 248.506 269.13 214.036 260.777 195.23C253.613 179.155 174.544 127.545 129.113 96.5946C111.279 84.4326 116.808 74.7476 137.21 85.2601C187.873 111.36 268.728 150.408 295.03 160.802C318.232 169.965 329.566 170.285 342.304 165.903C365.544 157.914 386.677 148.048 403.504 137.533C426.243 123.329 419.342 90.1236 394.426 84.3201L37.0008 1.09321Z"
        fill="#B2E6A8" fill-opacity="0.1" />
</svg>