<svg xmlns="http://www.w3.org/2000/svg" width="120" height="28" viewBox="0 0 120 28" fill="none">
    <g clip-path="url(#clip0_1085_411)">
        <mask id="mask0_1085_411" style="mask-type:luminance" maskUnits="userSpaceOnUse" x="0" y="0" width="120"
            height="28">
            <path d="M119.481 0H0.236816V28H119.481V0Z" fill="white" />
        </mask>
        <g mask="url(#mask0_1085_411)">
            <mask id="mask1_1085_411" style="mask-type:luminance" maskUnits="userSpaceOnUse" x="0" y="0" width="29"
                height="28">
                <path
                    d="M28.0975 13.9303C28.0975 6.23683 21.8607 0 14.1672 0C6.47365 0 0.236816 6.23683 0.236816 13.9303C0.236816 21.6239 6.47365 27.8607 14.1672 27.8607C21.8607 27.8607 28.0975 21.6239 28.0975 13.9303Z"
                    fill="white" />
            </mask>
            <g mask="url(#mask1_1085_411)">
                <path
                    d="M28.0975 13.9303C28.0975 6.23683 21.8607 0 14.1672 0C6.47365 0 0.236816 6.23683 0.236816 13.9303C0.236816 21.6239 6.47365 27.8607 14.1672 27.8607C21.8607 27.8607 28.0975 21.6239 28.0975 13.9303Z"
                    fill="#2380FF" />
                <path
                    d="M7.74922 27.6507C8.17266 27.865 8.60012 27.8979 9.03158 27.7495C9.46306 27.6013 9.78588 27.315 10 26.8908L13.5088 19.7638L16.0243 23.4498C16.3307 23.9033 16.7463 24.0521 17.2709 23.8962C17.7957 23.7402 18.064 23.3925 18.076 22.8528L18.3929 8.53426C18.4032 8.06907 18.2011 7.72949 17.7866 7.51554C17.3721 7.30158 16.9758 7.33936 16.5978 7.62886L5.12515 16.2551C4.69017 16.562 4.55533 16.9685 4.72061 17.4749C4.88588 17.9811 5.23871 18.2404 5.77907 18.2523L10.4682 18.3561L6.98921 25.4C6.77504 25.8233 6.74213 26.2509 6.89046 26.6823C7.03877 27.1139 7.32503 27.4366 7.74922 27.6507Z"
                    fill="white" />
            </g>
            <path
                d="M43.3473 20.0596C42.7114 20.1785 42.0873 20.229 41.4751 20.2112C40.8689 20.1994 40.325 20.0893 39.8436 19.8813C39.3622 19.6674 38.9966 19.3315 38.747 18.8739C38.527 18.4578 38.4111 18.0329 38.3993 17.599C38.3874 17.1651 38.3815 16.6747 38.3815 16.1279V7.75636H40.5212V16.0031C40.5212 16.3894 40.5241 16.7282 40.5301 17.0195C40.5419 17.3108 40.6043 17.5484 40.7173 17.7327C40.9313 18.0893 41.273 18.2884 41.7426 18.3301C42.2122 18.3717 42.7471 18.3479 43.3473 18.2587V20.0596ZM36.634 12.116V10.431H43.3473V12.116H36.634ZM48.7522 24.6065C48.2173 24.6065 47.7031 24.5233 47.2098 24.3569C46.7224 24.1904 46.2826 23.9497 45.8903 23.6347C45.4981 23.3256 45.1771 22.9512 44.9275 22.5114L46.9067 21.5307C47.091 21.8813 47.3495 22.1399 47.6823 22.3063C48.0211 22.4787 48.3807 22.5649 48.7611 22.5649C49.2069 22.5649 49.6051 22.4846 49.9558 22.3242C50.3064 22.1697 50.5769 21.9379 50.7671 21.6288C50.9632 21.3256 51.0553 20.9452 51.0434 20.4876V17.7505H51.3109V10.431H53.1921V20.5232C53.1921 20.7669 53.1802 20.9987 53.1564 21.2186C53.1386 21.4445 53.1058 21.6644 53.0583 21.8784C52.9157 22.5025 52.6422 23.0136 52.2381 23.4118C51.834 23.816 51.3317 24.1162 50.7314 24.3123C50.137 24.5084 49.4773 24.6065 48.7522 24.6065ZM48.565 20.3271C47.6794 20.3271 46.9067 20.1042 46.2469 19.6585C45.5872 19.2127 45.0761 18.6064 44.7135 17.8397C44.3509 17.073 44.1697 16.2082 44.1697 15.2453C44.1697 14.2706 44.3509 13.4028 44.7135 12.642C45.082 11.8753 45.6021 11.272 46.2737 10.8322C46.9453 10.3864 47.7358 10.1635 48.6452 10.1635C49.5606 10.1635 50.3273 10.3864 50.9454 10.8322C51.5695 11.272 52.042 11.8753 52.3629 12.642C52.6839 13.4087 52.8444 14.2765 52.8444 15.2453C52.8444 16.2022 52.6839 17.067 52.3629 17.8397C52.042 18.6064 51.5635 19.2127 50.9275 19.6585C50.2916 20.1042 49.504 20.3271 48.565 20.3271ZM48.8948 18.4014C49.4714 18.4014 49.935 18.2706 50.2856 18.0091C50.6423 17.7416 50.9008 17.3701 51.0613 16.8947C51.2277 16.4192 51.3109 15.8694 51.3109 15.2453C51.3109 14.6152 51.2277 14.0656 51.0613 13.596C50.9008 13.1205 50.6482 12.752 50.3035 12.4905C49.9587 12.223 49.5129 12.0893 48.9662 12.0893C48.3896 12.0893 47.9141 12.2319 47.5397 12.5172C47.1652 12.7965 46.8889 13.1769 46.7106 13.6584C46.5322 14.1338 46.4431 14.6629 46.4431 15.2453C46.4431 15.8337 46.5293 16.3687 46.7016 16.8501C46.8799 17.3255 47.1503 17.703 47.5129 17.9824C47.8755 18.2617 48.3361 18.4014 48.8948 18.4014ZM62.4624 20.3271C61.5234 20.3271 60.7358 20.1042 60.0998 19.6585C59.4639 19.2127 58.9854 18.6064 58.6645 17.8397C58.3435 17.067 58.183 16.2022 58.183 15.2453C58.183 14.2765 58.3435 13.4087 58.6645 12.642C58.9854 11.8753 59.455 11.272 60.0731 10.8322C60.6972 10.3864 61.4668 10.1635 62.3822 10.1635C63.2916 10.1635 64.0791 10.3864 64.7448 10.8322C65.4164 11.272 65.9365 11.8753 66.305 12.642C66.6734 13.4028 66.8577 14.2706 66.8577 15.2453C66.8577 16.2082 66.6765 17.073 66.3139 17.8397C65.9513 18.6064 65.4402 19.2127 64.7804 19.6585C64.1207 20.1042 63.348 20.3271 62.4624 20.3271ZM57.8175 20.0596V7.22144H59.9839V13.3018H59.7165V20.0596H57.8175ZM62.1326 18.4014C62.6913 18.4014 63.1518 18.2617 63.5145 17.9824C63.8771 17.703 64.1445 17.3255 64.3168 16.8501C64.4951 16.3687 64.5843 15.8337 64.5843 15.2453C64.5843 14.6629 64.4951 14.1338 64.3168 13.6584C64.1385 13.1769 63.8622 12.7965 63.4877 12.5172C63.1133 12.2319 62.6378 12.0893 62.0612 12.0893C61.5145 12.0893 61.0687 12.223 60.7239 12.4905C60.3791 12.752 60.1237 13.1205 59.9572 13.596C59.7967 14.0656 59.7165 14.6152 59.7165 15.2453C59.7165 15.8694 59.7967 16.4192 59.9572 16.8947C60.1237 17.3701 60.3822 17.7416 60.7328 18.0091C61.0895 18.2706 61.556 18.4014 62.1326 18.4014ZM72.3623 20.3271C71.3994 20.3271 70.5585 20.1102 69.8392 19.6763C69.12 19.2424 68.5614 18.645 68.1632 17.8843C67.7709 17.1176 67.5747 16.2379 67.5747 15.2453C67.5747 14.2349 67.7769 13.3493 68.181 12.5885C68.5851 11.8277 69.1468 11.2334 69.866 10.8054C70.5852 10.3775 71.4173 10.1635 72.3623 10.1635C73.3312 10.1635 74.1751 10.3805 74.8943 10.8144C75.6135 11.2482 76.1721 11.8485 76.5704 12.6153C76.9687 13.376 77.1677 14.2528 77.1677 15.2453C77.1677 16.2438 76.9656 17.1265 76.5615 17.8932C76.1632 18.6539 75.6046 19.2513 74.8854 19.6852C74.1662 20.1131 73.3252 20.3271 72.3623 20.3271ZM72.3623 18.3122C73.2182 18.3122 73.8541 18.0269 74.2702 17.4563C74.6863 16.8858 74.8943 16.1487 74.8943 15.2453C74.8943 14.3121 74.6833 13.5692 74.2613 13.0165C73.8394 12.4578 73.2064 12.1784 72.3623 12.1784C71.7857 12.1784 71.3103 12.3092 70.9358 12.5707C70.5674 12.8263 70.2939 13.1859 70.1156 13.6495C69.9373 14.1071 69.8482 14.6391 69.8482 15.2453C69.8482 16.1785 70.0592 16.9243 70.4812 17.4831C70.9091 18.0358 71.5361 18.3122 72.3623 18.3122ZM82.6715 20.3271C81.7086 20.3271 80.8676 20.1102 80.1484 19.6763C79.4292 19.2424 78.8706 18.645 78.4723 17.8843C78.08 17.1176 77.8839 16.2379 77.8839 15.2453C77.8839 14.2349 78.086 13.3493 78.4901 12.5885C78.8943 11.8277 79.4559 11.2334 80.1752 10.8054C80.8944 10.3775 81.7264 10.1635 82.6715 10.1635C83.6403 10.1635 84.4842 10.3805 85.2035 10.8144C85.9227 11.2482 86.4813 11.8485 86.8796 12.6153C87.2778 13.376 87.4769 14.2528 87.4769 15.2453C87.4769 16.2438 87.2747 17.1265 86.8706 17.8932C86.4724 18.6539 85.9138 19.2513 85.1945 19.6852C84.4753 20.1131 83.6343 20.3271 82.6715 20.3271ZM82.6715 18.3122C83.5274 18.3122 84.1633 18.0269 84.5794 17.4563C84.9955 16.8858 85.2035 16.1487 85.2035 15.2453C85.2035 14.3121 84.9924 13.5692 84.5705 13.0165C84.1485 12.4578 83.5155 12.1784 82.6715 12.1784C82.0949 12.1784 81.6194 12.3092 81.245 12.5707C80.8765 12.8263 80.6031 13.1859 80.4248 13.6495C80.2465 14.1071 80.1573 14.6391 80.1573 15.2453C80.1573 16.1785 80.3684 16.9243 80.7903 17.4831C81.2183 18.0358 81.8453 18.3122 82.6715 18.3122ZM92.2193 20.3271C91.0307 20.3271 90.0647 20.0596 89.3218 19.5247C88.5789 18.9898 88.1272 18.238 87.9667 17.2691L90.1599 16.9303C90.2728 17.4058 90.5225 17.7802 90.9088 18.0537C91.2951 18.3271 91.7825 18.4638 92.3709 18.4638C92.888 18.4638 93.2863 18.3628 93.5656 18.1607C93.8508 17.9527 93.9935 17.6703 93.9935 17.3137C93.9935 17.0937 93.94 16.9185 93.833 16.7877C93.732 16.651 93.5061 16.5202 93.1555 16.3954C92.8048 16.2706 92.2668 16.113 91.5418 15.9229C90.7334 15.7089 90.0915 15.48 89.616 15.2364C89.1406 14.9868 88.7987 14.6926 88.5908 14.3538C88.3828 14.015 88.2787 13.6049 88.2787 13.1234C88.2787 12.5231 88.4363 12.0001 88.7512 11.5543C89.0662 11.1086 89.5061 10.7668 90.0707 10.5291C90.6353 10.2854 91.301 10.1635 92.0678 10.1635C92.8167 10.1635 93.4793 10.2794 94.0559 10.5112C94.6383 10.743 95.1079 11.0729 95.4645 11.5008C95.8212 11.9288 96.0411 12.431 96.1243 13.0075L93.9311 13.3998C93.8776 12.9897 93.6904 12.6658 93.3694 12.428C93.0545 12.1903 92.6324 12.0566 92.1034 12.0268C91.5982 11.9971 91.1911 12.0744 90.882 12.2586C90.5729 12.437 90.4184 12.6896 90.4184 13.0165C90.4184 13.2007 90.4808 13.3582 90.6056 13.489C90.7305 13.6197 90.9801 13.7505 91.3545 13.8813C91.735 14.0121 92.2996 14.1725 93.0485 14.3627C93.8152 14.5588 94.4274 14.7846 94.885 15.0403C95.3486 15.2899 95.6814 15.5901 95.8836 15.9407C96.0915 16.2913 96.1956 16.7164 96.1956 17.2156C96.1956 18.1845 95.8419 18.9452 95.1347 19.498C94.4333 20.0507 93.4615 20.3271 92.2193 20.3271ZM103.079 20.0596C102.443 20.1785 101.819 20.229 101.206 20.2112C100.6 20.1994 100.056 20.0893 99.5748 19.8813C99.0934 19.6674 98.7279 19.3315 98.4782 18.8739C98.2583 18.4578 98.1424 18.0329 98.1305 17.599C98.1187 17.1651 98.1127 16.6747 98.1127 16.1279V7.75636H100.252V16.0031C100.252 16.3894 100.255 16.7282 100.261 17.0195C100.273 17.3108 100.336 17.5484 100.449 17.7327C100.663 18.0893 101.004 18.2884 101.474 18.3301C101.943 18.3717 102.478 18.3479 103.079 18.2587V20.0596ZM96.3653 12.116V10.431H103.079V12.116H96.3653ZM108.326 20.3271C107.351 20.3271 106.495 20.1161 105.758 19.6941C105.021 19.2722 104.445 18.6867 104.029 17.9378C103.618 17.1889 103.413 16.327 103.413 15.3523C103.413 14.3003 103.615 13.3879 104.02 12.6153C104.424 11.8367 104.985 11.2334 105.705 10.8054C106.424 10.3775 107.256 10.1635 108.201 10.1635C109.199 10.1635 110.046 10.3983 110.742 10.8678C111.443 11.3314 111.963 11.9882 112.302 12.8382C112.641 13.6881 112.769 14.6896 112.685 15.8426H110.555V15.0581C110.549 14.0121 110.364 13.2483 110.002 12.7668C109.639 12.2854 109.069 12.0447 108.29 12.0447C107.41 12.0447 106.757 12.3181 106.329 12.8649C105.901 13.4058 105.687 14.1993 105.687 15.2453C105.687 16.22 105.901 16.9749 106.329 17.5098C106.757 18.0448 107.381 18.3122 108.201 18.3122C108.73 18.3122 109.185 18.1963 109.565 17.9645C109.951 17.7267 110.249 17.385 110.457 16.9392L112.578 17.5812C112.21 18.4489 111.639 19.1235 110.867 19.605C110.1 20.0864 109.253 20.3271 108.326 20.3271ZM105.009 15.8426V14.22H111.633V15.8426H105.009ZM113.961 20.0596V10.431H115.86V12.7757L115.629 12.4726C115.747 12.1517 115.905 11.8604 116.101 11.5989C116.303 11.3314 116.544 11.1115 116.823 10.9392C117.061 10.7787 117.323 10.6539 117.608 10.5647C117.899 10.4696 118.196 10.4132 118.499 10.3953C118.802 10.3715 119.097 10.3834 119.382 10.431V12.437C119.097 12.3538 118.767 12.327 118.392 12.3567C118.024 12.3864 117.691 12.4905 117.394 12.6688C117.097 12.8292 116.853 13.0343 116.663 13.2839C116.478 13.5336 116.342 13.8188 116.253 14.1398C116.164 14.4548 116.119 14.7966 116.119 15.1651V20.0596H113.961Z"
                fill="#2380FF" />
        </g>
    </g>
    <defs>
        <clipPath id="clip0_1085_411">
            <rect width="120" height="28" fill="white" />
        </clipPath>
    </defs>
</svg>