<svg xmlns="http://www.w3.org/2000/svg" width="36" height="36" viewBox="0 0 36 36" fill="none">
    <path fill-rule="evenodd" clip-rule="evenodd"
        d="M22.284 23.529L22.134 23.904C19.4508 24.8001 16.5492 24.8001 13.866 23.904L13.716 23.529C13.5735 23.184 13.5015 23.01 13.377 22.851C13.254 22.6905 13.038 22.5285 12.606 22.206C11.0934 21.0735 9.9756 19.4936 9.41106 17.6903C8.84652 15.8871 8.86387 13.9518 9.46067 12.159C10.0575 10.3661 11.2034 8.80656 12.7361 7.70138C14.2688 6.5962 16.1104 6.00146 18 6.00146C19.8896 6.00146 21.7312 6.5962 23.2639 7.70138C24.7966 8.80656 25.9425 10.3661 26.5393 12.159C27.1361 13.9518 27.1535 15.8871 26.5889 17.6903C26.0244 19.4936 24.9066 21.0735 23.394 22.206C22.962 22.5285 22.746 22.6905 22.623 22.851C22.5 23.0115 22.428 23.1825 22.284 23.529ZM14.775 27.249C14.905 28.041 14.979 28.84 14.997 29.646C14.9985 29.7525 15.0291 29.8565 15.0854 29.9469C15.1417 30.0373 15.2216 30.1106 15.3165 30.159C16.1497 30.5756 17.0684 30.7925 18 30.7925C18.9316 30.7925 19.8503 30.5756 20.6835 30.159C20.7784 30.1106 20.8583 30.0373 20.9146 29.9469C20.9709 29.8565 21.0015 29.7525 21.003 29.646C21.021 28.84 21.095 28.041 21.225 27.249C19.0971 27.6854 16.9028 27.6854 14.775 27.249Z"
        fill="url(#paint0_linear_1086_609)" />
    <defs>
        <linearGradient id="paint0_linear_1086_609" x1="20.191" y1="6.20571" x2="18.0202" y2="25.5062"
            gradientUnits="userSpaceOnUse">
            <stop stop-color="#52CA01" />
            <stop offset="1" stop-color="#49B501" />
        </linearGradient>
    </defs>
</svg>