<svg xmlns="http://www.w3.org/2000/svg" width="36" height="36" viewBox="0 0 36 36" fill="none">
    <path
        d="M31.4999 4.5C31.8977 4.5 32.2792 4.65804 32.5605 4.93934C32.8418 5.22064 32.9999 5.60218 32.9999 6C32.9999 6.39782 32.8418 6.77936 32.5605 7.06066C32.2792 7.34196 31.8977 7.5 31.4999 7.5V21C31.4999 22.1935 31.0258 23.3381 30.1819 24.182C29.3379 25.0259 28.1934 25.5 26.9999 25.5H19.4999V28.5H22.4999C22.8977 28.5 23.2792 28.658 23.5605 28.9393C23.8418 29.2206 23.9999 29.6022 23.9999 30C23.9999 30.3978 23.8418 30.7794 23.5605 31.0607C23.2792 31.342 22.8977 31.5 22.4999 31.5H13.4999C13.1021 31.5 12.7205 31.342 12.4392 31.0607C12.1579 30.7794 11.9999 30.3978 11.9999 30C11.9999 29.6022 12.1579 29.2206 12.4392 28.9393C12.7205 28.658 13.1021 28.5 13.4999 28.5H16.4999V25.5H8.99988C7.8064 25.5 6.66181 25.0259 5.8179 24.182C4.97398 23.3381 4.49988 22.1935 4.49988 21V7.5C4.10205 7.5 3.72052 7.34196 3.43922 7.06066C3.15791 6.77936 2.99988 6.39782 2.99988 6C2.99988 5.60218 3.15791 5.22064 3.43922 4.93934C3.72052 4.65804 4.10205 4.5 4.49988 4.5H31.4999ZM13.4999 10.5C13.1021 10.5 12.7205 10.658 12.4392 10.9393C12.1579 11.2206 11.9999 11.6022 11.9999 12V18C11.9999 18.3978 12.1579 18.7794 12.4392 19.0607C12.7205 19.342 13.1021 19.5 13.4999 19.5C13.8977 19.5 14.2792 19.342 14.5605 19.0607C14.8418 18.7794 14.9999 18.3978 14.9999 18V12C14.9999 11.6022 14.8418 11.2206 14.5605 10.9393C14.2792 10.658 13.8977 10.5 13.4999 10.5ZM22.4999 13.5C22.1021 13.5 21.7205 13.658 21.4392 13.9393C21.1579 14.2206 20.9999 14.6022 20.9999 15V18C20.9999 18.3978 21.1579 18.7794 21.4392 19.0607C21.7205 19.342 22.1021 19.5 22.4999 19.5C22.8977 19.5 23.2792 19.342 23.5605 19.0607C23.8418 18.7794 23.9999 18.3978 23.9999 18V15C23.9999 14.6022 23.8418 14.2206 23.5605 13.9393C23.2792 13.658 22.8977 13.5 22.4999 13.5ZM17.9999 15C17.6021 15 17.2205 15.158 16.9392 15.4393C16.6579 15.7206 16.4999 16.1022 16.4999 16.5V18C16.4999 18.3978 16.6579 18.7794 16.9392 19.0607C17.2205 19.342 17.6021 19.5 17.9999 19.5C18.3977 19.5 18.7792 19.342 19.0605 19.0607C19.3418 18.7794 19.4999 18.3978 19.4999 18V16.5C19.4999 16.1022 19.3418 15.7206 19.0605 15.4393C18.7792 15.158 18.3977 15 17.9999 15Z"
        fill="url(#paint0_linear_1086_604)" />
    <defs>
        <linearGradient id="paint0_linear_1086_604" x1="21.6516" y1="4.72244" x2="20.0955" y2="25.8942"
            gradientUnits="userSpaceOnUse">
            <stop stop-color="#52CA01" />
            <stop offset="1" stop-color="#49B501" />
        </linearGradient>
    </defs>
</svg>