<svg xmlns="http://www.w3.org/2000/svg" width="36" height="36" viewBox="0 0 36 36" fill="none">
    <path fill-rule="evenodd" clip-rule="evenodd"
        d="M19.5 3C19.5 2.60218 19.342 2.22064 19.0607 1.93934C18.7794 1.65804 18.3978 1.5 18 1.5C17.6022 1.5 17.2206 1.65804 16.9393 1.93934C16.658 2.22064 16.5 2.60218 16.5 3V4.5H9C7.80653 4.5 6.66193 4.97411 5.81802 5.81802C4.97411 6.66193 4.5 7.80653 4.5 9V27C4.5 28.1935 4.97411 29.3381 5.81802 30.182C6.66193 31.0259 7.80653 31.5 9 31.5H16.5V33C16.5 33.3978 16.658 33.7794 16.9393 34.0607C17.2206 34.342 17.6022 34.5 18 34.5C18.3978 34.5 18.7794 34.342 19.0607 34.0607C19.342 33.7794 19.5 33.3978 19.5 33V31.5C19.8978 31.5 20.2794 31.342 20.5607 31.0607C20.842 30.7794 21 30.3978 21 30C21 29.6022 20.842 29.2206 20.5607 28.9393C20.2794 28.658 19.8978 28.5 19.5 28.5V7.5C19.8978 7.5 20.2794 7.34196 20.5607 7.06066C20.842 6.77936 21 6.39782 21 6C21 5.60218 20.842 5.22064 20.5607 4.93934C20.2794 4.65804 19.8978 4.5 19.5 4.5V3ZM25.5 4.5C25.1022 4.5 24.7206 4.65804 24.4393 4.93934C24.158 5.22064 24 5.60218 24 6C24 6.39782 24.158 6.77936 24.4393 7.06066C24.7206 7.34196 25.1022 7.5 25.5 7.5H27C27.3978 7.5 27.7794 7.65804 28.0607 7.93934C28.342 8.22064 28.5 8.60218 28.5 9V10.5C28.5 10.8978 28.658 11.2794 28.9393 11.5607C29.2206 11.842 29.6022 12 30 12C30.3978 12 30.7794 11.842 31.0607 11.5607C31.342 11.2794 31.5 10.8978 31.5 10.5V9C31.5 7.80653 31.0259 6.66193 30.182 5.81802C29.3381 4.97411 28.1935 4.5 27 4.5H25.5ZM31.5 16.5C31.5 16.1022 31.342 15.7206 31.0607 15.4393C30.7794 15.158 30.3978 15 30 15C29.6022 15 29.2206 15.158 28.9393 15.4393C28.658 15.7206 28.5 16.1022 28.5 16.5V19.5C28.5 19.8978 28.658 20.2794 28.9393 20.5607C29.2206 20.842 29.6022 21 30 21C30.3978 21 30.7794 20.842 31.0607 20.5607C31.342 20.2794 31.5 19.8978 31.5 19.5V16.5ZM31.5 25.5C31.5 25.1022 31.342 24.7206 31.0607 24.4393C30.7794 24.158 30.3978 24 30 24C29.6022 24 29.2206 24.158 28.9393 24.4393C28.658 24.7206 28.5 25.1022 28.5 25.5V27C28.5 27.3978 28.342 27.7794 28.0607 28.0607C27.7794 28.342 27.3978 28.5 27 28.5H25.5C25.1022 28.5 24.7206 28.658 24.4393 28.9393C24.158 29.2206 24 29.6022 24 30C24 30.3978 24.158 30.7794 24.4393 31.0607C24.7206 31.342 25.1022 31.5 25.5 31.5H27C28.1935 31.5 29.3381 31.0259 30.182 30.182C31.0259 29.3381 31.5 28.1935 31.5 27V25.5Z"
        fill="url(#paint0_linear_1086_619)" />
    <defs>
        <linearGradient id="paint0_linear_1086_619" x1="21.2866" y1="1.77187" x2="18.7154" y2="27.5316"
            gradientUnits="userSpaceOnUse">
            <stop stop-color="#52CA01" />
            <stop offset="1" stop-color="#49B501" />
        </linearGradient>
    </defs>
</svg>