<svg xmlns="http://www.w3.org/2000/svg" width="36" height="36" viewBox="0 0 36 36" fill="none">
    <path
        d="M8.4375 3.375C7.09484 3.375 5.80717 3.90837 4.85777 4.85777C3.90837 5.80717 3.375 7.09484 3.375 8.4375V10.125H32.625V8.4375C32.625 7.09484 32.0916 5.80717 31.1422 4.85777C30.1928 3.90837 28.9052 3.375 27.5625 3.375H8.4375ZM32.625 12.375H3.375V27.5625C3.375 28.9052 3.90837 30.1928 4.85777 31.1422C5.80717 32.0916 7.09484 32.625 8.4375 32.625H16.5128L17.2935 29.61C17.5009 28.808 17.9175 28.0754 18.5006 27.4871L28.1385 17.7671C28.7142 17.1852 29.426 16.7562 30.2095 16.5191C30.993 16.2819 31.8232 16.2442 32.625 16.4093V12.375ZM13.5 18.5625C13.5 19.0101 13.3222 19.4393 13.0057 19.7557C12.6893 20.0722 12.2601 20.25 11.8125 20.25C11.3649 20.25 10.9357 20.0722 10.6193 19.7557C10.3028 19.4393 10.125 19.0101 10.125 18.5625C10.125 18.1149 10.3028 17.6857 10.6193 17.3693C10.9357 17.0528 11.3649 16.875 11.8125 16.875C12.2601 16.875 12.6893 17.0528 13.0057 17.3693C13.3222 17.6857 13.5 18.1149 13.5 18.5625ZM11.8125 25.875C11.3649 25.875 10.9357 25.6972 10.6193 25.3807C10.3028 25.0643 10.125 24.6351 10.125 24.1875C10.125 23.7399 10.3028 23.3107 10.6193 22.9943C10.9357 22.6778 11.3649 22.5 11.8125 22.5C12.2601 22.5 12.6893 22.6778 13.0057 22.9943C13.3222 23.3107 13.5 23.7399 13.5 24.1875C13.5 24.6351 13.3222 25.0643 13.0057 25.3807C12.6893 25.6972 12.2601 25.875 11.8125 25.875ZM19.6875 24.1875C19.6875 24.6351 19.5097 25.0643 19.1932 25.3807C18.8768 25.6972 18.4476 25.875 18 25.875C17.5524 25.875 17.1232 25.6972 16.8068 25.3807C16.4903 25.0643 16.3125 24.6351 16.3125 24.1875C16.3125 23.7399 16.4903 23.3107 16.8068 22.9943C17.1232 22.6778 17.5524 22.5 18 22.5C18.4476 22.5 18.8768 22.6778 19.1932 22.9943C19.5097 23.3107 19.6875 23.7399 19.6875 24.1875ZM18 20.25C17.5524 20.25 17.1232 20.0722 16.8068 19.7557C16.4903 19.4393 16.3125 19.0101 16.3125 18.5625C16.3125 18.1149 16.4903 17.6857 16.8068 17.3693C17.1232 17.0528 17.5524 16.875 18 16.875C18.4476 16.875 18.8768 17.0528 19.1932 17.3693C19.5097 17.6857 19.6875 18.1149 19.6875 18.5625C19.6875 19.0101 19.5097 19.4393 19.1932 19.7557C18.8768 20.0722 18.4476 20.25 18 20.25ZM25.875 18.5625C25.875 19.0101 25.6972 19.4393 25.3807 19.7557C25.0643 20.0722 24.6351 20.25 24.1875 20.25C23.74 20.25 23.3107 20.0722 22.9943 19.7557C22.6778 19.4393 22.5 19.0101 22.5 18.5625C22.5 18.1149 22.6778 17.6857 22.9943 17.3693C23.3107 17.0528 23.74 16.875 24.1875 16.875C24.6351 16.875 25.0643 17.0528 25.3807 17.3693C25.6972 17.6857 25.875 18.1149 25.875 18.5625ZM24.2269 33.1504L33.9131 23.5395C34.5125 22.9451 34.8563 22.1402 34.8712 21.2962C34.8861 20.4521 34.571 19.6356 33.993 19.0204C33.6951 18.7032 33.3364 18.4492 32.9383 18.2736C32.5401 18.0981 32.1107 18.0045 31.6756 17.9985C31.2405 17.9925 30.8087 18.0743 30.4059 18.2388C30.003 18.4033 29.6375 18.6474 29.331 18.9563L19.6931 28.6763C19.3208 29.052 19.0541 29.52 18.9214 30.0319L18.0326 33.4654C17.9836 33.6548 17.9849 33.8538 18.0362 34.0426C18.0876 34.2314 18.1874 34.4035 18.3256 34.542C18.4639 34.6805 18.6358 34.7805 18.8246 34.8322C19.0133 34.8839 19.2122 34.8854 19.4018 34.8368L22.7993 33.9615C23.3385 33.8221 23.8311 33.5422 24.2269 33.1504Z"
        fill="url(#paint0_linear_1086_555)" />
    <defs>
        <linearGradient id="paint0_linear_1086_555" x1="22.9573" y1="3.63449" x2="20.9428" y2="28.3016"
            gradientUnits="userSpaceOnUse">
            <stop stop-color="#52CA01" />
            <stop offset="1" stop-color="#49B501" />
        </linearGradient>
    </defs>
</svg>