<svg xmlns="http://www.w3.org/2000/svg" width="36" height="36" viewBox="0 0 36 36" fill="none">
    <path
        d="M19.125 2.25V10.125C19.125 11.0201 19.4806 11.8786 20.1135 12.5115C20.7464 13.1444 21.6049 13.5 22.5 13.5H30.375V30.375C30.375 31.2701 30.0194 32.1286 29.3865 32.7615C28.7536 33.3944 27.8951 33.75 27 33.75H9C8.10489 33.75 7.24645 33.3944 6.61351 32.7615C5.98058 32.1286 5.625 31.2701 5.625 30.375V5.625C5.625 4.72989 5.98058 3.87145 6.61351 3.23851C7.24645 2.60558 8.10489 2.25 9 2.25H19.125ZM21.375 2.38163V10.125C21.375 10.4234 21.4935 10.7095 21.7045 10.9205C21.9155 11.1315 22.2016 11.25 22.5 11.25H30.2434C30.0855 10.7003 29.7905 10.1998 29.3861 9.79537L22.8296 3.24C22.4253 2.83521 21.9248 2.53984 21.375 2.38163ZM19.125 23.625C19.125 23.3266 19.0065 23.0405 18.7955 22.8295C18.5845 22.6185 18.2984 22.5 18 22.5C17.7016 22.5 17.4155 22.6185 17.2045 22.8295C16.9935 23.0405 16.875 23.3266 16.875 23.625V28.125C16.875 28.4234 16.9935 28.7095 17.2045 28.9205C17.4155 29.1315 17.7016 29.25 18 29.25C18.2984 29.25 18.5845 29.1315 18.7955 28.9205C19.0065 28.7095 19.125 28.4234 19.125 28.125V23.625ZM12.375 13.5C12.0766 13.5 11.7905 13.6185 11.5795 13.8295C11.3685 14.0405 11.25 14.3266 11.25 14.625V28.125C11.25 28.4234 11.3685 28.7095 11.5795 28.9205C11.7905 29.1315 12.0766 29.25 12.375 29.25C12.6734 29.25 12.9595 29.1315 13.1705 28.9205C13.3815 28.7095 13.5 28.4234 13.5 28.125V14.625C13.5 14.3266 13.3815 14.0405 13.1705 13.8295C12.9595 13.6185 12.6734 13.5 12.375 13.5ZM24.75 19.125C24.75 18.8266 24.6315 18.5405 24.4205 18.3295C24.2095 18.1185 23.9234 18 23.625 18C23.3266 18 23.0405 18.1185 22.8295 18.3295C22.6185 18.5405 22.5 18.8266 22.5 19.125V28.125C22.5 28.4234 22.6185 28.7095 22.8295 28.9205C23.0405 29.1315 23.3266 29.25 23.625 29.25C23.9234 29.25 24.2095 29.1315 24.4205 28.9205C24.6315 28.7095 24.75 28.4234 24.75 28.125V19.125Z"
        fill="url(#paint0_linear_1086_543)" />
    <defs>
        <linearGradient id="paint0_linear_1086_543" x1="21.0127" y1="2.50952" x2="18.4591" y2="27.0779"
            gradientUnits="userSpaceOnUse">
            <stop stop-color="#52CA01" />
            <stop offset="1" stop-color="#49B501" />
        </linearGradient>
    </defs>
</svg>