<svg xmlns="http://www.w3.org/2000/svg" width="36" height="36" viewBox="0 0 36 36" fill="none">
    <path
        d="M9.90002 30.6H18V27C18 26.3681 18.1664 25.7473 18.4824 25.2001C18.7983 24.6528 19.2528 24.1984 19.8001 23.8824C20.3473 23.5664 20.9681 23.4001 21.6 23.4001C22.232 23.4001 22.8528 23.5665 23.4 23.8824V19.8C23.4 18.8452 23.7793 17.9296 24.4544 17.2544C25.1296 16.5793 26.0452 16.2 27 16.2C27.9548 16.2 28.8705 16.5793 29.5456 17.2544C30.2207 17.9296 30.6 18.8452 30.6 19.8V12.6H5.40002V26.1C5.40002 27.2935 5.87413 28.4381 6.71804 29.282C7.56196 30.1259 8.70655 30.6 9.90002 30.6ZM26.1 5.40002C27.2935 5.40002 28.4381 5.87413 29.282 6.71804C30.1259 7.56196 30.6 8.70655 30.6 9.90002V10.8H5.40002V9.90002C5.40002 8.70655 5.87413 7.56196 6.71804 6.71804C7.56196 5.87413 8.70655 5.40002 9.90002 5.40002H26.1ZM27 18C26.5226 18 26.0648 18.1897 25.7272 18.5272C25.3897 18.8648 25.2 19.3226 25.2 19.8V32.4C25.2 32.8774 25.3897 33.3353 25.7272 33.6728C26.0648 34.0104 26.5226 34.2 27 34.2C27.4774 34.2 27.9353 34.0104 28.2728 33.6728C28.6104 33.3353 28.8 32.8774 28.8 32.4V19.8C28.8 19.3226 28.6104 18.8648 28.2728 18.5272C27.9353 18.1897 27.4774 18 27 18ZM21.6 25.2C21.1226 25.2 20.6648 25.3897 20.3272 25.7272C19.9897 26.0648 19.8 26.5226 19.8 27V32.4C19.8 32.8774 19.9897 33.3353 20.3272 33.6728C20.6648 34.0104 21.1226 34.2 21.6 34.2C22.0774 34.2 22.5353 34.0104 22.8728 33.6728C23.2104 33.3353 23.4 32.8774 23.4 32.4V27C23.4 26.5226 23.2104 26.0648 22.8728 25.7272C22.5353 25.3897 22.0774 25.2 21.6 25.2ZM30.6 23.4C30.6 22.9226 30.7897 22.4648 31.1272 22.1272C31.4648 21.7897 31.9226 21.6 32.4 21.6C32.8774 21.6 33.3353 21.7897 33.6728 22.1272C34.0104 22.4648 34.2 22.9226 34.2 23.4V32.4C34.2 32.8774 34.0104 33.3353 33.6728 33.6728C33.3353 34.0104 32.8774 34.2 32.4 34.2C31.9226 34.2 31.4648 34.0104 31.1272 33.6728C30.7897 33.3353 30.6 32.8774 30.6 32.4V23.4Z"
        fill="url(#paint0_linear_1086_549)" />
    <defs>
        <linearGradient id="paint0_linear_1086_549" x1="23.3057" y1="5.6373" x2="21.4638" y2="28.1921"
            gradientUnits="userSpaceOnUse">
            <stop stop-color="#52CA01" />
            <stop offset="1" stop-color="#49B501" />
        </linearGradient>
    </defs>
</svg>